<svg width="100" height="100" viewBox="0 0 100 100" fill="none" xmlns="http://www.w3.org/2000/svg">
<g clip-path="url(#clip0)">
<path d="M93.8026 81.662V76.2939C93.8026 69.6884 90.4732 65.0093 83.651 62.0735C79.4456 60.2638 77.1408 60.3394 60.8185 57.0206V52.5276C65.7135 49.2271 68.2564 44.5312 68.7653 39.3791C71.2189 39.2792 73.1834 37.252 73.1834 34.7755V31.2927C73.1834 31.2561 73.1827 31.2195 73.1819 31.1829C74.7955 30.5428 75.9399 28.9665 75.9399 27.1271C75.9399 24.9321 74.3088 23.1102 72.1954 22.8104V21.2685C72.1954 9.52225 62.6732 0 50.9262 0H49.1264C37.3802 0 27.858 9.52225 27.858 21.2685V22.8104C25.7439 23.1102 24.1135 24.9321 24.1135 27.1271C24.1135 28.9665 25.2571 30.5428 26.8707 31.1829C26.87 31.2195 26.87 31.2561 26.87 31.2927V34.7755C26.87 37.252 28.8345 39.2792 31.2874 39.3791C31.7955 44.5206 34.314 49.2096 39.2342 52.5269V57.0206C22.8897 60.3439 20.6116 60.2623 16.4024 62.0735C9.57947 65.0093 6.25 69.6884 6.25 76.2932V93.3716C6.25 97.0329 9.21783 100 12.8784 100H87.175C90.8356 100 93.8034 97.0329 93.8034 93.3723V87.5229C93.8034 85.5858 90.873 85.5827 90.873 87.5229V93.3723C90.873 95.414 89.2174 97.0695 87.175 97.0695H79.8668C79.4708 86.647 81.012 82.3517 77.7214 76.5327C75.0763 71.8544 76.2131 68.0481 75.9399 62.9463C76.5274 63.2195 90.873 64.2342 90.873 76.2932V81.662C90.873 83.5991 93.8026 83.6021 93.8026 81.662ZM64.4318 60.7079C59.0103 68.589 59.1354 68.5539 58.2138 69.207C57.5409 69.6831 56.8665 69.9478 55.9959 69.426L53.0342 67.6498C55.6572 66.1446 59.5337 63.4102 60.5614 59.9556L64.4318 60.7079ZM23.1079 87.4115H36.9049L36.9041 91.2209H23.111L23.1079 87.4115ZM23.114 94.1513H37.5397C38.8046 94.1513 39.8338 93.1221 39.8338 91.8571C39.6667 87.4237 40.274 86.264 39.164 85.1532C37.9845 83.9737 37.7586 84.7046 23.1064 84.481C23.1514 82.1976 23.761 79.9591 24.8833 77.9747C28.0502 72.3732 26.7349 67.794 27.0439 62.3764L32.4867 61.3174C33.6159 62.9753 41.6519 74.6368 45.5627 80.2193C47.5243 83.0193 48.5611 86.3068 48.5619 89.7263V97.0695H23.1163L23.114 94.1513ZM47.0184 67.6506L44.0567 69.426C42.7948 70.1836 41.4429 69.1528 40.612 67.9489C38.604 65.0414 36.776 62.3863 35.6216 60.7079L39.492 59.9556C40.519 63.4102 44.3962 66.1446 47.0184 67.6506ZM50.0267 82.3006C49.4835 80.9845 48.7938 79.7241 47.9622 78.5378C46.7422 76.7952 45.2957 74.7162 43.8095 72.5716C45.356 72.3373 45.9038 71.627 50.0267 69.2635C54.1275 71.6148 54.702 72.3381 56.2439 72.5716C54.7577 74.7162 53.3112 76.7952 52.0905 78.5378C51.2596 79.7241 50.5692 80.9845 50.0267 82.3006ZM59.5924 5.11017C60.3355 5.51071 61.0481 5.96008 61.7256 6.45523V8.85925C61.1671 9.00803 60.1509 9.00803 59.5924 8.85925V5.11017ZM51.0933 2.93121V13.353C50.5341 13.5017 49.5186 13.5017 48.9601 13.353V2.93121C49.1005 2.92969 50.9491 2.92969 51.0933 2.93121ZM38.3278 6.45523C39.0053 5.96008 39.7171 5.51071 40.4602 5.11017V8.85925C39.9017 9.00803 38.8863 9.00803 38.3278 8.85925V6.45523ZM35.3973 9.12399V9.38644C35.3973 12.7708 43.3907 12.7777 43.3907 9.38644V3.84903C44.2451 3.56674 45.1263 3.34625 46.0297 3.19214V13.8802C46.0297 17.2417 54.0237 17.2829 54.0237 13.8802V3.19214C54.9271 3.34625 55.8083 3.56674 56.662 3.84903V9.38644C56.662 12.7708 64.6561 12.7777 64.6561 9.38644V9.12399C70.1012 15.2725 69.1574 22.1222 69.265 22.7669H30.7884C30.8975 22.1146 29.9294 15.2977 35.3973 9.12399ZM34.1316 37.8868C34.0912 35.997 31.7505 36.5189 31.4774 36.4532C30.5527 36.4532 29.8004 35.7002 29.8004 34.7755V31.488H36.0413C37.9784 31.488 37.9807 28.5576 36.0413 28.5576H28.4737C27.6848 28.5576 27.0439 27.916 27.0439 27.1271C27.0439 26.339 27.6848 25.6973 28.4737 25.6973H71.5797C72.3686 25.6973 73.0095 26.339 73.0095 27.1271C73.0095 27.916 72.3686 28.5576 71.5797 28.5576H41.9014C39.9643 28.5576 39.962 31.488 41.9014 31.488H70.253V34.7755C70.253 35.7002 69.5007 36.4532 68.5753 36.4532C68.2732 36.5257 65.9622 36.0031 65.9218 37.8868C65.7288 46.8857 58.136 52.8419 50.0267 52.9396C41.9411 52.8419 34.3246 46.9078 34.1316 37.8868ZM50.0099 55.8701H50.0427C52.8259 55.8388 55.4489 55.2673 57.888 54.1656V58.2283C57.888 59.8137 56.4606 61.7249 53.8673 63.6101C52.3659 64.7011 50.84 65.5205 50.0267 65.9286C49.2126 65.5205 47.6868 64.7011 46.1853 63.6101C43.5928 61.7249 42.1646 59.8137 42.1646 58.2283V54.1656C44.6037 55.2673 47.2275 55.8388 50.0099 55.8701ZM9.18045 93.3723V76.2939C9.18045 69.8982 12.7945 65.9729 20.8969 63.5719L24.1135 62.9463C23.8403 68.0573 24.9763 71.8567 22.332 76.5327C19.0353 82.3631 20.5818 86.6707 20.1859 97.0695H12.8784C10.8391 97.0695 9.18045 95.4109 9.18045 93.3723ZM76.9417 91.2209H63.1424V87.4115H76.9447L76.9417 91.2209ZM75.1701 77.9747C76.2924 79.9591 76.902 82.1976 76.947 84.481H62.5069C61.2419 84.481 60.2127 85.5103 60.2127 86.7752V91.8564C60.2127 93.1213 61.2419 94.1513 62.5069 94.1513H76.9394L76.9363 97.0695H51.4915V89.7263C51.4915 86.3075 52.5291 83.0193 54.4907 80.2193C58.3534 74.7047 66.4902 62.8975 67.5667 61.3182L73.0095 62.3764C73.3208 67.8253 72.0024 72.3732 75.1701 77.9747Z" fill="black"/>
</g>
<defs>
<clipPath id="clip0">
<rect width="100" height="100" fill="white"/>
</clipPath>
</defs>
</svg>
