<svg width="100" height="100" viewBox="0 0 100 100" fill="none" xmlns="http://www.w3.org/2000/svg">
<path d="M15 100H85C93.2843 100 100 93.2843 100 85V15C100 6.71573 93.2843 0 85 0H15C6.71573 0 0 6.71573 0 15V85C0 93.2843 6.71573 100 15 100ZM3.33333 15C3.33333 8.55668 8.55668 3.33333 15 3.33333H85C91.4433 3.33333 96.6667 8.55668 96.6667 15V85C96.6667 91.4433 91.4433 96.6667 85 96.6667H15C8.55668 96.6667 3.33333 91.4433 3.33333 85V15Z" fill="black"/>
<path d="M28.3332 27.2C28.3605 26.6519 28.1162 26.1255 27.6799 25.7925C27.2437 25.4594 26.6715 25.3625 26.1499 25.5334C21.5726 26.8884 18.4066 31.0603 18.3333 35.8334C18.4425 40.5754 21.6015 44.7043 26.1499 46.05C26.6572 46.2154 27.2131 46.128 27.645 45.8147C28.077 45.5014 28.3329 45.0003 28.3332 44.4667V27.2ZM24.9999 41.8167C22.9341 40.5294 21.6785 38.2675 21.6785 35.8334C21.6785 33.3993 22.9341 31.1374 24.9999 29.85V41.8167Z" fill="black"/>
<path d="M33.8499 74.3834C38.4657 73.1357 41.6716 68.9481 41.6716 64.1667C41.6716 59.3853 38.4657 55.1977 33.8499 53.95C33.3284 53.7792 32.7562 53.8761 32.3199 54.2091C31.8837 54.5421 31.6394 55.0686 31.6666 55.6167V72.8C31.667 73.3336 31.9229 73.8348 32.3548 74.148C32.7868 74.4613 33.3426 74.5488 33.8499 74.3834ZM34.9999 58.1834C37.0658 59.4707 38.3214 61.7326 38.3214 64.1667C38.3214 66.6008 37.0658 68.8627 34.9999 70.15V58.1834Z" fill="black"/>
<path d="M21.6667 64.1667C21.6667 60.4848 18.6819 57.5 15 57.5C11.3181 57.5 8.33337 60.4848 8.33337 64.1667C8.45425 73.9894 15.384 82.409 25 84.4167V85C25 87.7614 27.2386 90 30 90C32.7615 90 35 87.7614 35 85V84.4167C44.6859 82.5231 51.6746 74.0358 51.6746 64.1667C51.6746 54.2975 44.6859 45.8102 35 43.9167V29.85C37.0337 31.1691 38.282 33.4099 38.3334 35.8333C38.3334 39.5152 41.3182 42.5 45.0001 42.5C48.682 42.5 51.6667 39.5152 51.6667 35.8333C51.5458 26.0106 44.6161 17.591 35 15.5833V15C35 12.2386 32.7615 10 30 10C27.2386 10 25 12.2386 25 15V15.5833C15.384 17.591 8.45425 26.0106 8.33337 35.8333C8.45425 45.656 15.384 54.0756 25 56.0833V70.15C22.9664 68.8309 21.7181 66.5901 21.6667 64.1667ZM26.9334 53.0667C18.2933 51.8687 11.814 44.5548 11.6667 35.8333C11.814 27.1119 18.2933 19.7979 26.9334 18.6C27.7485 18.468 28.344 17.759 28.3334 16.9333V15C28.3334 14.0795 29.0796 13.3333 30 13.3333C30.9205 13.3333 31.6667 14.0795 31.6667 15V16.95C31.6561 17.7757 32.2516 18.4846 33.0667 18.6167C41.7006 19.8136 48.1779 27.1182 48.3334 35.8333C48.3334 37.6743 46.841 39.1667 45.0001 39.1667C43.1591 39.1667 41.6667 37.6743 41.6667 35.8333C41.5575 31.0912 38.3985 26.9624 33.85 25.6167C33.3285 25.4459 32.7563 25.5428 32.32 25.8758C31.8838 26.2088 31.6395 26.7352 31.6667 27.2833V45.2833C31.6561 46.109 32.2516 46.818 33.0667 46.95C41.7603 48.0335 48.2855 55.4225 48.2855 64.1833C48.2855 72.9441 41.7603 80.3332 33.0667 81.4167C32.2516 81.5487 31.6561 82.2577 31.6667 83.0833V85C31.6667 85.9205 30.9205 86.6667 30 86.6667C29.0796 86.6667 28.3334 85.9205 28.3334 85V83.05C28.344 82.2244 27.7485 81.5154 26.9334 81.3833C18.2994 80.1864 11.8222 72.8818 11.6667 64.1667C11.6667 62.3257 13.1591 60.8333 15 60.8333C16.841 60.8333 18.3334 62.3257 18.3334 64.1667C18.4426 68.9088 21.6016 73.0376 26.15 74.3833C26.6716 74.5542 27.2438 74.4573 27.6801 74.1242C28.1163 73.7912 28.3606 73.2648 28.3334 72.7167V54.7167C28.3357 53.8973 27.7422 53.1978 26.9334 53.0667Z" fill="black"/>
<path d="M65.8334 26.6667H80.8334C82.2141 26.6667 83.3334 25.5474 83.3334 24.1667V15.8334C83.3334 14.4527 82.2141 13.3334 80.8334 13.3334H65.8334C64.4527 13.3334 63.3334 14.4527 63.3334 15.8334V24.1667C63.3334 24.8298 63.5968 25.4656 64.0656 25.9345C64.5344 26.4033 65.1703 26.6667 65.8334 26.6667ZM66.6667 16.6667H80V23.3334H66.6667V16.6667Z" fill="black"/>
<path d="M71.4833 70.45C71.9598 70.9666 72.6305 71.2605 73.3333 71.2605C74.0361 71.2605 74.7069 70.9666 75.1833 70.45L91.6666 52.5167C92.3399 51.7779 92.5084 50.709 92.095 49.799C91.6817 48.8889 90.766 48.3125 89.7666 48.3333H83.3333V32.5C83.3333 31.1193 82.214 30 80.8333 30H65.8333C64.4526 30 63.3333 31.1193 63.3333 32.5V48.3333H56.9C55.9006 48.3125 54.9849 48.8889 54.5716 49.799C54.1583 50.709 54.3267 51.7779 55 52.5167L71.4833 70.45ZM64.1666 51.6667C65.5474 51.6667 66.6666 50.5474 66.6666 49.1667V33.3333H80V49.1667C80 50.5474 81.1193 51.6667 82.5 51.6667H87.8833L73.3333 67.5333L58.7833 51.6667H64.1666Z" fill="black"/>
</svg>
