<svg width="100" height="100" viewBox="0 0 100 100" fill="none" xmlns="http://www.w3.org/2000/svg">
<g clip-path="url(#clip0)">
<path d="M20.8984 37.1094C20.8984 53.2639 34.0409 66.4063 50.1954 66.4063C66.3499 66.4063 79.4923 53.2639 79.4923 37.1094C79.4923 20.9549 66.3499 7.8125 50.1954 7.8125C34.0409 7.8125 20.8984 20.9549 20.8984 37.1094ZM50.1954 11.7188C64.1961 11.7188 75.586 23.1087 75.586 37.1094C75.586 51.1101 64.1961 62.5001 50.1954 62.5001C36.1946 62.5001 24.8047 51.1101 24.8047 37.1094C24.8047 23.1087 36.1946 11.7188 50.1954 11.7188Z" fill="#020202"/>
<path d="M32.1076 33.6273L39.6783 41.0866L37.9365 51.5702C37.8152 52.3003 38.1165 53.0358 38.7154 53.4707C39.3136 53.9056 40.1063 53.9643 40.7632 53.624L50.1954 48.726L59.6269 53.624C60.2784 53.962 61.0711 53.9094 61.6746 53.4707C62.2735 53.0358 62.5749 52.3003 62.4536 51.5702L60.7118 41.0866L68.2824 33.6273C68.8096 33.1085 68.9981 32.3365 68.7692 31.6323C68.5403 30.9288 67.9338 30.4154 67.2021 30.3047L56.6957 28.7232L51.9418 19.2162C51.6114 18.5547 50.9347 18.1366 50.1954 18.1366C49.4554 18.1366 48.7794 18.5547 48.4483 19.2162L43.6944 28.7232L33.1879 30.3047C32.4563 30.4146 31.8497 30.9288 31.6209 31.6323C31.392 32.3365 31.5812 33.1085 32.1076 33.6273ZM45.279 32.4349C45.9077 32.3403 46.4509 31.9458 46.7355 31.3774L50.1954 24.4568L53.6553 31.3774C53.9399 31.9458 54.4831 32.3403 55.1118 32.4349L62.7588 33.5862L57.248 39.0145C56.7956 39.4608 56.5881 40.0994 56.6919 40.7265L57.9599 48.3567L51.0949 44.7922C50.8134 44.6457 50.5044 44.5725 50.1954 44.5725C49.8864 44.5725 49.5774 44.6457 49.2951 44.7922L42.4302 48.3567L43.6982 40.7265C43.8027 40.0994 43.5952 39.4608 43.142 39.0145L37.6321 33.5862L45.279 32.4349Z" fill="#020202"/>
<path d="M52.1484 1.95313C52.1484 3.03193 51.2741 3.90626 50.1953 3.90626C49.1165 3.90626 48.2422 3.03193 48.2422 1.95313C48.2422 0.87433 49.1165 0 50.1953 0C51.2741 0 52.1484 0.87433 52.1484 1.95313Z" fill="#020202"/>
<path d="M40.9905 1.15127C24.5606 5.34516 13.0859 20.1317 13.0859 37.1094C13.0859 47.654 17.5194 57.5898 25.3021 64.6264L13.5353 85.3639C13.1569 86.0315 13.2042 86.8585 13.6559 87.478C14.1075 88.0983 14.8796 88.3966 15.6311 88.2402L28.994 85.4653L33.6907 98.7001C33.9455 99.4203 34.5978 99.9246 35.3592 99.9925C36.1206 100.06 36.8508 99.6766 37.2284 99.0121L50.1954 76.2155L63.1615 99.0121C63.511 99.6263 64.161 99.9994 64.8583 99.9994C64.9155 99.9994 64.9735 99.9971 65.0308 99.9925C65.7922 99.9246 66.4445 99.4195 66.7001 98.7001L71.396 85.4653L84.7589 88.2402C85.5096 88.3958 86.2825 88.0975 86.7341 87.478C87.1865 86.8585 87.2331 86.0315 86.8547 85.3639L75.0878 64.6264C82.8706 57.5898 87.304 47.654 87.304 37.1094C87.304 20.1317 75.8294 5.34516 59.4002 1.15127C58.3543 0.884246 57.2915 1.5152 57.0245 2.56043C56.7574 3.60565 57.3884 4.66919 58.4336 4.93622C73.1324 8.68836 83.3985 21.9185 83.3985 37.1094C83.3985 55.5978 68.3831 70.3126 50.1954 70.3126C31.9947 70.3126 16.9922 55.5855 16.9922 37.1094C16.9922 21.9185 27.2576 8.68836 41.9564 4.93622C43.0016 4.66919 43.6326 3.60565 43.3663 2.56043C43.0993 1.5152 42.0365 0.884246 40.9905 1.15127ZM35.9444 93.3702L32.106 82.554C31.7795 81.6339 30.8243 81.096 29.8683 81.2944L19.0628 83.5382L28.3753 67.1258C33.8051 71.0732 40.2344 73.478 46.9201 74.0731L35.9444 93.3702ZM70.5216 81.2944C69.5664 81.096 68.6105 81.6339 68.2839 82.554L64.4463 93.3702L53.4699 74.0731C60.1563 73.478 66.5849 71.0732 72.0155 67.1258L81.3279 83.5382L70.5216 81.2944Z" fill="#020202"/>
</g>
<defs>
<clipPath id="clip0">
<rect width="100" height="100" fill="white"/>
</clipPath>
</defs>
</svg>
